<svg width="18" height="18" viewBox="0 0 18 18" fill="none" xmlns="http://www.w3.org/2000/svg">
<path d="M10.9688 15.3982H3.09375C2.00644 15.3982 1.125 14.5168 1.125 13.4295V6.53885C1.125 5.45153 2.00644 4.5701 3.09375 4.5701H5.40703L5.55469 3.54487C5.55946 3.289 5.66602 3.04559 5.85076 2.86851C6.03551 2.69142 6.28322 2.59528 6.53906 2.60135H11.4609C11.7168 2.59581 11.9643 2.69226 12.149 2.86945C12.3337 3.04663 12.4403 3.28999 12.4453 3.54585L12.593 4.5701H14.9062C15.9936 4.5701 16.875 5.45153 16.875 6.53885V9.98416C16.875 10.256 16.6546 10.4763 16.3828 10.4763C16.111 10.4763 15.8906 10.256 15.8906 9.98416V6.53885C15.8906 5.99519 15.4499 5.55447 14.9062 5.55447H12.1643C11.9192 5.55475 11.7113 5.37473 11.6765 5.13217L11.4659 3.65561C11.4625 3.63247 11.4609 3.60911 11.4609 3.58572H6.53906C6.53914 3.60911 6.53749 3.63247 6.53414 3.65561L6.32348 5.13217C6.28869 5.37473 6.08077 5.55475 5.83573 5.55447H3.09375C2.55009 5.55447 2.10938 5.99519 2.10938 6.53885V13.4295C2.10938 13.9731 2.55009 14.4138 3.09375 14.4138H10.9688C11.2406 14.4138 11.4609 14.6342 11.4609 14.906C11.4609 15.1779 11.2406 15.3982 10.9688 15.3982Z" fill="white"/>
<path d="M9.98438 5.55469H6.04688C5.77505 5.55469 5.55469 5.33433 5.55469 5.0625C5.55469 4.79067 5.77505 4.57031 6.04688 4.57031H9.98438C10.2562 4.57031 10.4766 4.79067 10.4766 5.0625C10.4766 5.33433 10.2562 5.55469 9.98438 5.55469Z" fill="white"/>
<path fill-rule="evenodd" clip-rule="evenodd" d="M5.55469 9.98438C5.55469 11.8872 7.09721 13.4297 9 13.4297C10.9019 13.4275 12.4431 11.8863 12.4453 9.98438C12.4453 8.08158 10.9028 6.53906 9 6.53906C7.09721 6.53906 5.55469 8.08158 5.55469 9.98438ZM6.53907 9.9839C6.53907 8.62477 7.64087 7.52297 9 7.52297C10.3585 7.52459 11.4593 8.62544 11.4609 9.9839C11.4609 11.343 10.3591 12.4448 9 12.4448C7.64087 12.4448 6.53907 11.343 6.53907 9.9839Z" fill="white"/>
<path d="M14.4141 7.52344C14.6859 7.52344 14.9063 7.30308 14.9063 7.03125C14.9063 6.75942 14.6859 6.53906 14.4141 6.53906C14.1423 6.53906 13.9219 6.75942 13.9219 7.03125C13.9219 7.30308 14.1423 7.52344 14.4141 7.52344Z" fill="white"/>
<path d="M15.8906 13.4296C15.7601 13.4296 15.6349 13.3777 15.5427 13.2854L14.4141 12.1568L13.2855 13.2854C13.0924 13.4719 12.7854 13.4692 12.5955 13.2794C12.4057 13.0895 12.403 12.7825 12.5895 12.5894L14.0661 11.1129C14.2583 10.9207 14.5698 10.9207 14.762 11.1129L16.2386 12.5894C16.3793 12.7302 16.4214 12.9418 16.3453 13.1257C16.2691 13.3096 16.0897 13.4295 15.8906 13.4296Z" fill="white"/>
<path d="M14.4141 15.3979C14.1423 15.3979 13.9219 15.1776 13.9219 14.9058V11.4604C13.9219 11.1886 14.1423 10.9683 14.4141 10.9683C14.6859 10.9683 14.9063 11.1886 14.9063 11.4604V14.9058C14.9063 15.1776 14.6859 15.3979 14.4141 15.3979Z" fill="white"/>
</svg>
