<svg width="38" height="38" viewBox="0 0 38 38" fill="none" xmlns="http://www.w3.org/2000/svg">
<path d="M27.3666 15.5758C26.5212 15.5872 25.6788 15.6786 24.8506 15.8488C24.742 15.87 24.6316 15.8808 24.521 15.881C23.5783 15.881 22.9429 15.0623 22.8737 14.9694C22.4462 14.393 22.0793 13.838 21.7248 13.3013C20.2813 11.1169 19.0342 9.23035 15.5089 9.23035C10.6248 9.23035 6.56653 12.8332 5.85112 17.5208H5.81463C5.81463 17.5936 5.82163 17.662 5.82391 17.7335C5.76832 18.1534 5.74001 18.5765 5.73914 19.0001C5.73914 24.3869 10.1216 28.7694 15.5086 28.7694C15.6061 28.7694 15.7028 28.7661 15.7996 28.7631L15.8266 28.7621C15.9333 28.7674 16.0403 28.7694 16.1482 28.7694H25.4591C27.2624 28.7673 28.9913 28.05 30.2664 26.7748C31.5416 25.4997 32.2589 23.7708 32.2609 21.9675C32.2612 19.577 32.2612 15.5758 27.3666 15.5758ZM27.857 23.362L30.5622 19.351C30.7034 20.0027 30.7531 20.8061 30.7592 21.761C30.1439 22.7101 28.9509 23.1563 27.857 23.362ZM29.7933 17.809L25.9328 23.5328C25.6775 23.5323 25.5213 23.5225 25.5135 23.522C25.4956 23.5208 25.4773 23.52 25.4594 23.52H22.5009L26.8352 17.0939C27.0191 17.0824 27.1971 17.0759 27.3666 17.0759C28.5141 17.0756 29.2806 17.3156 29.7933 17.809ZM24.5207 17.3808C24.6287 17.3806 24.7365 17.3748 24.8439 17.3636L20.692 23.52H17.1646L22.0428 16.2865C22.5074 16.7469 23.3576 17.3811 24.5207 17.3808ZM21.0794 15.0327L15.4414 23.3925L15.6303 23.52H15.5464C14.4678 23.3897 13.4045 23.1543 12.3718 22.8171L19.3289 12.5015C19.7033 12.9656 20.0648 13.5101 20.4735 14.1283C20.6685 14.4232 20.8679 14.7244 21.0794 15.0327ZM18.2308 11.4471L10.942 22.2547C10.0306 21.8293 9.15398 21.2681 8.48977 20.5309L15.0924 10.7404C15.2304 10.7336 15.3689 10.7299 15.5087 10.7299C16.714 10.7301 17.5506 10.9826 18.2308 11.4471ZM13.0357 11.1082L7.61772 19.1416C7.44979 18.7113 7.35189 18.257 7.32775 17.7957C7.55685 16.2581 8.21346 14.8158 9.2227 13.6334C10.2319 12.451 11.5532 11.576 13.0357 11.1082ZM25.4593 27.2696H16.1486C16.0556 27.2696 15.9632 27.2673 15.8713 27.2628C15.8586 27.262 15.8456 27.2618 15.8331 27.2618C15.8251 27.2618 15.8173 27.262 15.8091 27.2623L15.7498 27.2643C15.6698 27.2668 15.5893 27.2696 15.5089 27.2696C13.8451 27.2674 12.2205 26.7642 10.8468 25.8256C9.4731 24.8869 8.41396 23.5562 7.80737 22.007C10.545 24.5361 15.1659 24.9918 15.4416 25.0168C15.4639 25.0188 15.4864 25.0198 15.5089 25.0198H25.4346C25.5098 25.0245 25.6985 25.0343 25.9685 25.0343C26.8939 25.0343 28.7731 24.9165 30.3142 24.0917C29.9007 25.0354 29.2215 25.8384 28.3594 26.4027C27.4974 26.967 26.4897 27.2682 25.4593 27.2696Z" fill="#697586"/>
</svg>
