<svg width="24" height="24" viewBox="0 0 24 24" fill="none" xmlns="http://www.w3.org/2000/svg">
<path fill-rule="evenodd" clip-rule="evenodd" d="M6.56003 3.0059C6.71111 2.79224 6.94822 2.6665 7.20003 2.6665H16.8C17.0518 2.6665 17.2889 2.79224 17.44 3.0059L19.84 6.39984C19.9439 6.54671 20 6.72534 20 6.90893V18.7877C20 19.4628 19.7472 20.1103 19.2971 20.5876C18.847 21.065 18.2365 21.3332 17.6 21.3332H6.40003C5.76351 21.3332 5.15306 21.065 4.70297 20.5876C4.25289 20.1103 4.00003 19.4628 4.00003 18.7877V6.90893C4.00003 6.72534 4.05617 6.54671 4.16003 6.39984L6.56003 3.0059ZM7.60003 4.36347L5.60003 7.19176V18.7877C5.60003 19.0128 5.68432 19.2286 5.83434 19.3877C5.98437 19.5468 6.18786 19.6362 6.40003 19.6362H17.6C17.8122 19.6362 18.0157 19.5468 18.1657 19.3877C18.3157 19.2286 18.4 19.0127 18.4 18.7877V7.19176L16.4 4.36347H7.60003Z" fill="#9B9B9B"/>
<path fill-rule="evenodd" clip-rule="evenodd" d="M4.00003 6.90893C4.00003 6.44032 4.3582 6.06044 4.80003 6.06044H19.2C19.6419 6.06044 20 6.44032 20 6.90893C20 7.37753 19.6419 7.75741 19.2 7.75741H4.80003C4.3582 7.75741 4.00003 7.37753 4.00003 6.90893Z" fill="#9B9B9B"/>
<path fill-rule="evenodd" clip-rule="evenodd" d="M8.80003 9.45438C9.24186 9.45438 9.60003 9.83426 9.60003 10.3029C9.60003 10.978 9.85288 11.6254 10.303 12.1028C10.7531 12.5801 11.3635 12.8483 12 12.8483C12.6365 12.8483 13.247 12.5801 13.6971 12.1028C14.1472 11.6254 14.4 10.978 14.4 10.3029C14.4 9.83426 14.7582 9.45438 15.2 9.45438C15.6419 9.45438 16 9.83426 16 10.3029C16 11.428 15.5786 12.5071 14.8285 13.3027C14.0783 14.0983 13.0609 14.5453 12 14.5453C10.9392 14.5453 9.92175 14.0983 9.1716 13.3027C8.42146 12.5071 8.00003 11.428 8.00003 10.3029C8.00003 9.83426 8.3582 9.45438 8.80003 9.45438Z" fill="#9B9B9B"/>
</svg>
